<svg xmlns="http://www.w3.org/2000/svg" xmlns:xlink="http://www.w3.org/1999/xlink" width="500" zoomAndPan="magnify" viewBox="0 0 375 374.999991" height="500" preserveAspectRatio="xMidYMid meet" version="1.0"><defs><g/><clipPath id="623c3c13c7"><path d="M 248.074219 145.789062 L 257.46875 145.789062 L 257.46875 155.1875 L 248.074219 155.1875 Z M 248.074219 145.789062 " clip-rule="nonzero"/></clipPath><clipPath id="b944ff2c24"><path d="M 252.773438 145.789062 C 250.175781 145.789062 248.074219 147.894531 248.074219 150.488281 C 248.074219 153.082031 250.175781 155.1875 252.773438 155.1875 C 255.367188 155.1875 257.46875 153.082031 257.46875 150.488281 C 257.46875 147.894531 255.367188 145.789062 252.773438 145.789062 Z M 252.773438 145.789062 " clip-rule="nonzero"/></clipPath></defs><rect x="-37.5" width="450" fill="#ffffff" y="-37.499999" height="449.999989" fill-opacity="1"/><rect x="-37.5" width="450" fill="#ffffff" y="-37.499999" height="449.999989" fill-opacity="1"/><g fill="#545454" fill-opacity="1"><g transform="translate(51.871301, 206.027314)"><g><path d="M -0.765625 17.09375 L 11.84375 -42.265625 L 18.078125 -42.265625 L 16.78125 -36.09375 L 17.546875 -35.9375 C 18.929688 -37.976562 20.925781 -39.675781 23.53125 -41.03125 C 26.132812 -42.382812 29.097656 -43.0625 32.421875 -43.0625 C 35.097656 -43.0625 37.484375 -42.460938 39.578125 -41.265625 C 41.671875 -40.066406 43.316406 -38.265625 44.515625 -35.859375 C 45.722656 -33.460938 46.328125 -30.550781 46.328125 -27.125 C 46.328125 -24.820312 46.046875 -22.359375 45.484375 -19.734375 C 44.535156 -15.285156 43.015625 -11.53125 40.921875 -8.46875 C 38.828125 -5.40625 36.265625 -3.09375 33.234375 -1.53125 C 30.210938 0.0195312 26.835938 0.796875 23.109375 0.796875 C 20.367188 0.796875 17.921875 0.238281 15.765625 -0.875 C 13.609375 -2 12.082031 -3.660156 11.1875 -5.859375 L 10.34375 -5.703125 L 5.484375 17.09375 Z M 23.0625 -4.796875 C 31.519531 -4.796875 36.910156 -10.25 39.234375 -21.15625 C 39.722656 -23.394531 39.96875 -25.410156 39.96875 -27.203125 C 39.96875 -30.722656 39.097656 -33.3125 37.359375 -34.96875 C 35.617188 -36.632812 33.175781 -37.46875 30.03125 -37.46875 C 27.476562 -37.46875 25.109375 -36.90625 22.921875 -35.78125 C 20.742188 -34.65625 18.851562 -32.929688 17.25 -30.609375 C 15.65625 -28.285156 14.488281 -25.390625 13.75 -21.921875 C 13.269531 -19.566406 13.03125 -17.445312 13.03125 -15.5625 C 13.03125 -11.875 13.914062 -9.15625 15.6875 -7.40625 C 17.46875 -5.664062 19.925781 -4.796875 23.0625 -4.796875 Z M 23.0625 -4.796875 "/></g></g></g><g fill="#545454" fill-opacity="1"><g transform="translate(97.977613, 206.027314)"><g><path d="M 18.015625 0.796875 C 15.453125 0.796875 13.117188 0.222656 11.015625 -0.921875 C 8.910156 -2.066406 7.222656 -3.828125 5.953125 -6.203125 C 4.691406 -8.578125 4.0625 -11.503906 4.0625 -14.984375 C 4.0625 -17.328125 4.328125 -19.710938 4.859375 -22.140625 C 6.347656 -29.066406 8.972656 -34.285156 12.734375 -37.796875 C 16.503906 -41.304688 21.363281 -43.0625 27.3125 -43.0625 C 30.019531 -43.0625 32.445312 -42.4375 34.59375 -41.1875 C 36.738281 -39.9375 38.25 -38.160156 39.125 -35.859375 L 39.96875 -36.015625 L 41.34375 -42.265625 L 47.59375 -42.265625 L 38.578125 0 L 32.34375 0 L 33.640625 -6.171875 L 32.875 -6.328125 C 31.394531 -4.023438 29.410156 -2.257812 26.921875 -1.03125 C 24.429688 0.1875 21.460938 0.796875 18.015625 0.796875 Z M 20.390625 -4.796875 C 24.316406 -4.796875 27.742188 -6.140625 30.671875 -8.828125 C 33.597656 -11.523438 35.648438 -15.617188 36.828125 -21.109375 C 37.203125 -23.003906 37.390625 -24.726562 37.390625 -26.28125 C 37.390625 -29.832031 36.488281 -32.582031 34.6875 -34.53125 C 32.894531 -36.488281 30.453125 -37.46875 27.359375 -37.46875 C 18.898438 -37.46875 13.507812 -32.015625 11.1875 -21.109375 C 10.800781 -19.398438 10.609375 -17.664062 10.609375 -15.90625 C 10.609375 -13.550781 11.015625 -11.535156 11.828125 -9.859375 C 12.648438 -8.191406 13.796875 -6.929688 15.265625 -6.078125 C 16.734375 -5.222656 18.441406 -4.796875 20.390625 -4.796875 Z M 20.390625 -4.796875 "/></g></g></g><g fill="#545454" fill-opacity="1"><g transform="translate(144.122239, 206.027314)"><g><path d="M 0.15625 17.9375 C -1.195312 17.9375 -2.46875 17.78125 -3.65625 17.46875 C -4.84375 17.164062 -5.875 16.769531 -6.75 16.28125 L -4.5625 11.34375 L -3.828125 11.109375 C -3.316406 11.492188 -2.609375 11.816406 -1.703125 12.078125 C -0.796875 12.347656 0.128906 12.484375 1.078125 12.484375 C 2.785156 12.484375 4.234375 12.253906 5.421875 11.796875 C 6.609375 11.335938 7.707031 10.582031 8.71875 9.53125 C 9.726562 8.488281 10.796875 7.023438 11.921875 5.140625 L 14.40625 1 L 6.546875 -42.265625 L 12.953125 -42.265625 L 18.921875 -7.78125 L 19.65625 -7.78125 L 39.546875 -42.265625 L 46.671875 -42.265625 L 17.625 6.8125 C 15.988281 9.601562 14.359375 11.796875 12.734375 13.390625 C 11.117188 14.984375 9.3125 16.140625 7.3125 16.859375 C 5.320312 17.578125 2.9375 17.9375 0.15625 17.9375 Z M 0.15625 17.9375 "/></g></g></g><g fill="#545454" fill-opacity="1"><g transform="translate(184.366387, 206.027314)"><g><path d="M 26.28125 0.796875 C 22.269531 0.796875 18.75 -0.0664062 15.71875 -1.796875 C 12.695312 -3.535156 10.351562 -6.003906 8.6875 -9.203125 C 7.03125 -12.410156 6.203125 -16.140625 6.203125 -20.390625 C 6.203125 -22.835938 6.484375 -25.378906 7.046875 -28.015625 C 8.347656 -34.117188 10.476562 -39.328125 13.4375 -43.640625 C 16.40625 -47.953125 20.035156 -51.226562 24.328125 -53.46875 C 28.617188 -55.707031 33.359375 -56.828125 38.546875 -56.828125 C 43.398438 -56.828125 47.351562 -55.832031 50.40625 -53.84375 C 53.457031 -51.863281 55.519531 -48.882812 56.59375 -44.90625 L 51.765625 -42.109375 L 50.8125 -42.109375 C 49.8125 -45.296875 48.222656 -47.5625 46.046875 -48.90625 C 43.878906 -50.25 40.957031 -50.921875 37.28125 -50.921875 C 33.757812 -50.921875 30.457031 -50.132812 27.375 -48.5625 C 24.300781 -46.988281 21.597656 -44.5 19.265625 -41.09375 C 16.941406 -37.6875 15.21875 -33.328125 14.09375 -28.015625 C 13.488281 -25.203125 13.1875 -22.539062 13.1875 -20.03125 C 13.1875 -14.945312 14.476562 -11.191406 17.0625 -8.765625 C 19.65625 -6.347656 23.148438 -5.140625 27.546875 -5.140625 C 31.554688 -5.140625 34.988281 -6.078125 37.84375 -7.953125 C 40.707031 -9.828125 43.226562 -12.832031 45.40625 -16.96875 L 46.359375 -16.96875 L 50.609375 -14.5625 C 48.972656 -11.132812 47.085938 -8.300781 44.953125 -6.0625 C 42.828125 -3.832031 40.238281 -2.128906 37.1875 -0.953125 C 34.132812 0.210938 30.5 0.796875 26.28125 0.796875 Z M 26.28125 0.796875 "/></g></g></g><g fill="#545454" fill-opacity="1"><g transform="translate(234.993856, 206.027314)"><g><path d="M 17.625 -50.421875 C 16.289062 -50.421875 15.207031 -50.832031 14.375 -51.65625 C 13.550781 -52.488281 13.140625 -53.546875 13.140625 -54.828125 C 13.140625 -56.109375 13.550781 -57.160156 14.375 -57.984375 C 15.207031 -58.816406 16.289062 -59.234375 17.625 -59.234375 C 18.957031 -59.234375 20.035156 -58.816406 20.859375 -57.984375 C 21.691406 -57.160156 22.109375 -56.109375 22.109375 -54.828125 C 22.109375 -53.546875 21.691406 -52.488281 20.859375 -51.65625 C 20.035156 -50.832031 18.957031 -50.421875 17.625 -50.421875 Z M 2.828125 0 L 11.796875 -42.265625 L 18.046875 -42.265625 L 9.078125 0 Z M 2.828125 0 "/></g></g></g><g fill="#545454" fill-opacity="1"><g transform="translate(251.636082, 206.027314)"><g><path d="M 18.921875 -37.171875 L 13.609375 -12.0625 C 13.421875 -11.195312 13.328125 -10.378906 13.328125 -9.609375 C 13.328125 -7.953125 13.773438 -6.734375 14.671875 -5.953125 C 15.566406 -5.179688 16.804688 -4.796875 18.390625 -4.796875 C 20.660156 -4.796875 22.703125 -5.429688 24.515625 -6.703125 L 25.328125 -6.703125 L 26.59375 -2.21875 C 24.21875 -0.207031 21.007812 0.796875 16.96875 0.796875 C 13.882812 0.796875 11.453125 -0.0390625 9.671875 -1.71875 C 7.898438 -3.40625 7.015625 -5.734375 7.015625 -8.703125 C 7.015625 -9.847656 7.140625 -11.019531 7.390625 -12.21875 L 12.6875 -37.171875 L 5.328125 -37.171875 L 6.4375 -42.296875 L 13.796875 -42.296875 L 15.671875 -51.234375 L 22.140625 -52.265625 L 20.03125 -42.296875 L 33.640625 -42.296875 L 32.53125 -37.171875 Z M 18.921875 -37.171875 "/></g></g></g><g fill="#545454" fill-opacity="1"><g transform="translate(279.504549, 206.027314)"><g><path d="M 0.15625 17.9375 C -1.195312 17.9375 -2.46875 17.78125 -3.65625 17.46875 C -4.84375 17.164062 -5.875 16.769531 -6.75 16.28125 L -4.5625 11.34375 L -3.828125 11.109375 C -3.316406 11.492188 -2.609375 11.816406 -1.703125 12.078125 C -0.796875 12.347656 0.128906 12.484375 1.078125 12.484375 C 2.785156 12.484375 4.234375 12.253906 5.421875 11.796875 C 6.609375 11.335938 7.707031 10.582031 8.71875 9.53125 C 9.726562 8.488281 10.796875 7.023438 11.921875 5.140625 L 14.40625 1 L 6.546875 -42.265625 L 12.953125 -42.265625 L 18.921875 -7.78125 L 19.65625 -7.78125 L 39.546875 -42.265625 L 46.671875 -42.265625 L 17.625 6.8125 C 15.988281 9.601562 14.359375 11.796875 12.734375 13.390625 C 11.117188 14.984375 9.3125 16.140625 7.3125 16.859375 C 5.320312 17.578125 2.9375 17.9375 0.15625 17.9375 Z M 0.15625 17.9375 "/></g></g></g><g clip-path="url(#623c3c13c7)"><g clip-path="url(#b944ff2c24)"><path fill="#ff914d" d="M 248.074219 145.789062 L 257.46875 145.789062 L 257.46875 155.1875 L 248.074219 155.1875 Z M 248.074219 145.789062 " fill-opacity="1" fill-rule="nonzero"/></g></g><g fill="#a6a6a6" fill-opacity="1"><g transform="translate(151.606694, 241.675429)"><g><path d="M 4.75 0.1875 C 3.976562 0.1875 3.289062 0.046875 2.6875 -0.234375 C 2.082031 -0.523438 1.609375 -0.957031 1.265625 -1.53125 C 0.929688 -2.113281 0.765625 -2.828125 0.765625 -3.671875 C 0.765625 -4.117188 0.820312 -4.625 0.9375 -5.1875 C 1.144531 -6.164062 1.5 -7.003906 2 -7.703125 C 2.507812 -8.410156 3.148438 -8.945312 3.921875 -9.3125 C 4.703125 -9.6875 5.59375 -9.875 6.59375 -9.875 C 7.601562 -9.875 8.390625 -9.679688 8.953125 -9.296875 C 9.515625 -8.921875 9.910156 -8.375 10.140625 -7.65625 L 8.3125 -6.515625 L 8.125 -6.515625 C 7.96875 -6.960938 7.742188 -7.289062 7.453125 -7.5 C 7.160156 -7.707031 6.753906 -7.8125 6.234375 -7.8125 C 5.546875 -7.8125 4.945312 -7.5625 4.4375 -7.0625 C 3.9375 -6.5625 3.570312 -5.785156 3.34375 -4.734375 C 3.28125 -4.410156 3.25 -4.109375 3.25 -3.828125 C 3.25 -3.222656 3.398438 -2.742188 3.703125 -2.390625 C 4.015625 -2.046875 4.453125 -1.875 5.015625 -1.875 C 5.972656 -1.875 6.75 -2.4375 7.34375 -3.5625 L 7.546875 -3.59375 L 9.21875 -2.609375 C 8.8125 -1.742188 8.238281 -1.0625 7.5 -0.5625 C 6.769531 -0.0625 5.851562 0.1875 4.75 0.1875 Z M 4.75 0.1875 "/></g></g><g transform="translate(161.599857, 241.675429)"><g><path d="M 4.828125 0.1875 C 4.003906 0.1875 3.285156 0.0351562 2.671875 -0.265625 C 2.066406 -0.566406 1.597656 -1.007812 1.265625 -1.59375 C 0.941406 -2.175781 0.78125 -2.875 0.78125 -3.6875 C 0.78125 -4.164062 0.832031 -4.664062 0.9375 -5.1875 C 1.144531 -6.164062 1.492188 -7.003906 1.984375 -7.703125 C 2.484375 -8.410156 3.109375 -8.945312 3.859375 -9.3125 C 4.617188 -9.6875 5.476562 -9.875 6.4375 -9.875 C 7.257812 -9.875 7.972656 -9.71875 8.578125 -9.40625 C 9.191406 -9.101562 9.664062 -8.65625 10 -8.0625 C 10.332031 -7.476562 10.5 -6.773438 10.5 -5.953125 C 10.5 -5.503906 10.445312 -5.019531 10.34375 -4.5 C 10.125 -3.53125 9.765625 -2.691406 9.265625 -1.984375 C 8.773438 -1.285156 8.15625 -0.75 7.40625 -0.375 C 6.65625 0 5.796875 0.1875 4.828125 0.1875 Z M 5.046875 -1.875 C 5.765625 -1.875 6.363281 -2.117188 6.84375 -2.609375 C 7.332031 -3.109375 7.679688 -3.851562 7.890625 -4.84375 C 7.984375 -5.257812 8.03125 -5.625 8.03125 -5.9375 C 8.03125 -6.570312 7.867188 -7.039062 7.546875 -7.34375 C 7.234375 -7.65625 6.789062 -7.8125 6.21875 -7.8125 C 5.507812 -7.8125 4.910156 -7.5625 4.421875 -7.0625 C 3.929688 -6.570312 3.582031 -5.832031 3.375 -4.84375 C 3.289062 -4.4375 3.25 -4.078125 3.25 -3.765625 C 3.25 -3.117188 3.40625 -2.640625 3.71875 -2.328125 C 4.039062 -2.023438 4.484375 -1.875 5.046875 -1.875 Z M 5.046875 -1.875 "/></g></g><g transform="translate(172.867434, 241.675429)"><g><path d="M 0.375 0 L 2.421875 -9.6875 L 4.765625 -9.6875 L 4.46875 -8.265625 L 4.625 -8.234375 C 4.988281 -8.773438 5.421875 -9.179688 5.921875 -9.453125 C 6.429688 -9.734375 7.039062 -9.875 7.75 -9.875 C 8.632812 -9.875 9.3125 -9.628906 9.78125 -9.140625 C 10.25 -8.660156 10.484375 -7.992188 10.484375 -7.140625 C 10.484375 -6.773438 10.4375 -6.378906 10.34375 -5.953125 L 9.078125 0 L 6.640625 0 L 7.921875 -6 C 7.960938 -6.1875 7.984375 -6.375 7.984375 -6.5625 C 7.984375 -6.957031 7.863281 -7.265625 7.625 -7.484375 C 7.394531 -7.710938 7.050781 -7.828125 6.59375 -7.828125 C 5.914062 -7.828125 5.34375 -7.597656 4.875 -7.140625 C 4.40625 -6.691406 4.070312 -5.984375 3.875 -5.015625 L 2.796875 0 Z M 0.375 0 "/></g></g><g transform="translate(184.222903, 241.675429)"><g><path d="M 0.375 0 L 2.421875 -9.6875 L 4.765625 -9.6875 L 4.46875 -8.265625 L 4.625 -8.234375 C 4.988281 -8.773438 5.421875 -9.179688 5.921875 -9.453125 C 6.429688 -9.734375 7.039062 -9.875 7.75 -9.875 C 8.632812 -9.875 9.3125 -9.628906 9.78125 -9.140625 C 10.25 -8.660156 10.484375 -7.992188 10.484375 -7.140625 C 10.484375 -6.773438 10.4375 -6.378906 10.34375 -5.953125 L 9.078125 0 L 6.640625 0 L 7.921875 -6 C 7.960938 -6.1875 7.984375 -6.375 7.984375 -6.5625 C 7.984375 -6.957031 7.863281 -7.265625 7.625 -7.484375 C 7.394531 -7.710938 7.050781 -7.828125 6.59375 -7.828125 C 5.914062 -7.828125 5.34375 -7.597656 4.875 -7.140625 C 4.40625 -6.691406 4.070312 -5.984375 3.875 -5.015625 L 2.796875 0 Z M 0.375 0 "/></g></g><g transform="translate(195.578371, 241.675429)"><g><path d="M 9.859375 -6.765625 C 9.640625 -5.691406 9.054688 -4.921875 8.109375 -4.453125 C 7.160156 -3.984375 6 -3.75 4.625 -3.75 C 4.132812 -3.75 3.679688 -3.769531 3.265625 -3.8125 C 3.296875 -3.164062 3.46875 -2.679688 3.78125 -2.359375 C 4.09375 -2.035156 4.535156 -1.875 5.109375 -1.875 C 5.648438 -1.875 6.09375 -1.976562 6.4375 -2.1875 C 6.789062 -2.40625 7.113281 -2.734375 7.40625 -3.171875 L 7.59375 -3.171875 L 9.15625 -2.09375 C 8.851562 -1.613281 8.519531 -1.207031 8.15625 -0.875 C 7.789062 -0.550781 7.320312 -0.289062 6.75 -0.09375 C 6.1875 0.09375 5.492188 0.1875 4.671875 0.1875 C 3.929688 0.1875 3.269531 0.0234375 2.6875 -0.296875 C 2.101562 -0.617188 1.644531 -1.082031 1.3125 -1.6875 C 0.976562 -2.289062 0.8125 -3.015625 0.8125 -3.859375 C 0.8125 -4.335938 0.867188 -4.84375 0.984375 -5.375 C 1.179688 -6.3125 1.546875 -7.117188 2.078125 -7.796875 C 2.617188 -8.472656 3.269531 -8.988281 4.03125 -9.34375 C 4.789062 -9.695312 5.601562 -9.875 6.46875 -9.875 C 7.207031 -9.875 7.832031 -9.757812 8.34375 -9.53125 C 8.863281 -9.3125 9.253906 -9.003906 9.515625 -8.609375 C 9.785156 -8.222656 9.921875 -7.796875 9.921875 -7.328125 C 9.921875 -7.117188 9.898438 -6.929688 9.859375 -6.765625 Z M 6.234375 -7.984375 C 5.859375 -7.984375 5.492188 -7.898438 5.140625 -7.734375 C 4.785156 -7.566406 4.460938 -7.3125 4.171875 -6.96875 C 3.890625 -6.625 3.675781 -6.195312 3.53125 -5.6875 C 3.976562 -5.65625 4.40625 -5.640625 4.8125 -5.640625 C 5.601562 -5.640625 6.234375 -5.738281 6.703125 -5.9375 C 7.179688 -6.132812 7.472656 -6.484375 7.578125 -6.984375 C 7.585938 -7.054688 7.59375 -7.113281 7.59375 -7.15625 C 7.59375 -7.40625 7.472656 -7.601562 7.234375 -7.75 C 7.003906 -7.90625 6.671875 -7.984375 6.234375 -7.984375 Z M 6.234375 -7.984375 "/></g></g><g transform="translate(206.116456, 241.675429)"><g><path d="M 4.75 0.1875 C 3.976562 0.1875 3.289062 0.046875 2.6875 -0.234375 C 2.082031 -0.523438 1.609375 -0.957031 1.265625 -1.53125 C 0.929688 -2.113281 0.765625 -2.828125 0.765625 -3.671875 C 0.765625 -4.117188 0.820312 -4.625 0.9375 -5.1875 C 1.144531 -6.164062 1.5 -7.003906 2 -7.703125 C 2.507812 -8.410156 3.148438 -8.945312 3.921875 -9.3125 C 4.703125 -9.6875 5.59375 -9.875 6.59375 -9.875 C 7.601562 -9.875 8.390625 -9.679688 8.953125 -9.296875 C 9.515625 -8.921875 9.910156 -8.375 10.140625 -7.65625 L 8.3125 -6.515625 L 8.125 -6.515625 C 7.96875 -6.960938 7.742188 -7.289062 7.453125 -7.5 C 7.160156 -7.707031 6.753906 -7.8125 6.234375 -7.8125 C 5.546875 -7.8125 4.945312 -7.5625 4.4375 -7.0625 C 3.9375 -6.5625 3.570312 -5.785156 3.34375 -4.734375 C 3.28125 -4.410156 3.25 -4.109375 3.25 -3.828125 C 3.25 -3.222656 3.398438 -2.742188 3.703125 -2.390625 C 4.015625 -2.046875 4.453125 -1.875 5.015625 -1.875 C 5.972656 -1.875 6.75 -2.4375 7.34375 -3.5625 L 7.546875 -3.59375 L 9.21875 -2.609375 C 8.8125 -1.742188 8.238281 -1.0625 7.5 -0.5625 C 6.769531 -0.0625 5.851562 0.1875 4.75 0.1875 Z M 4.75 0.1875 "/></g></g><g transform="translate(216.109619, 241.675429)"><g><path d="M 4.828125 -7.765625 L 3.890625 -3.34375 C 3.847656 -3.175781 3.828125 -3.023438 3.828125 -2.890625 C 3.828125 -2.585938 3.90625 -2.351562 4.0625 -2.1875 C 4.226562 -2.03125 4.460938 -1.953125 4.765625 -1.953125 C 4.972656 -1.953125 5.164062 -1.984375 5.34375 -2.046875 C 5.53125 -2.109375 5.71875 -2.195312 5.90625 -2.3125 L 6.09375 -2.3125 L 6.421875 -0.515625 C 6.117188 -0.285156 5.789062 -0.113281 5.4375 0 C 5.082031 0.125 4.617188 0.1875 4.046875 0.1875 C 3.515625 0.1875 3.046875 0.09375 2.640625 -0.09375 C 2.242188 -0.289062 1.929688 -0.582031 1.703125 -0.96875 C 1.472656 -1.351562 1.359375 -1.828125 1.359375 -2.390625 C 1.359375 -2.722656 1.394531 -3.066406 1.46875 -3.421875 L 2.390625 -7.765625 L 0.921875 -7.765625 L 1.328125 -9.703125 L 2.796875 -9.703125 L 3.203125 -11.59375 L 5.71875 -11.984375 L 5.234375 -9.703125 L 7.984375 -9.703125 L 7.578125 -7.765625 Z M 4.828125 -7.765625 "/></g></g><g transform="translate(223.641845, 241.675429)"><g><path d="M 9.859375 -6.765625 C 9.640625 -5.691406 9.054688 -4.921875 8.109375 -4.453125 C 7.160156 -3.984375 6 -3.75 4.625 -3.75 C 4.132812 -3.75 3.679688 -3.769531 3.265625 -3.8125 C 3.296875 -3.164062 3.46875 -2.679688 3.78125 -2.359375 C 4.09375 -2.035156 4.535156 -1.875 5.109375 -1.875 C 5.648438 -1.875 6.09375 -1.976562 6.4375 -2.1875 C 6.789062 -2.40625 7.113281 -2.734375 7.40625 -3.171875 L 7.59375 -3.171875 L 9.15625 -2.09375 C 8.851562 -1.613281 8.519531 -1.207031 8.15625 -0.875 C 7.789062 -0.550781 7.320312 -0.289062 6.75 -0.09375 C 6.1875 0.09375 5.492188 0.1875 4.671875 0.1875 C 3.929688 0.1875 3.269531 0.0234375 2.6875 -0.296875 C 2.101562 -0.617188 1.644531 -1.082031 1.3125 -1.6875 C 0.976562 -2.289062 0.8125 -3.015625 0.8125 -3.859375 C 0.8125 -4.335938 0.867188 -4.84375 0.984375 -5.375 C 1.179688 -6.3125 1.546875 -7.117188 2.078125 -7.796875 C 2.617188 -8.472656 3.269531 -8.988281 4.03125 -9.34375 C 4.789062 -9.695312 5.601562 -9.875 6.46875 -9.875 C 7.207031 -9.875 7.832031 -9.757812 8.34375 -9.53125 C 8.863281 -9.3125 9.253906 -9.003906 9.515625 -8.609375 C 9.785156 -8.222656 9.921875 -7.796875 9.921875 -7.328125 C 9.921875 -7.117188 9.898438 -6.929688 9.859375 -6.765625 Z M 6.234375 -7.984375 C 5.859375 -7.984375 5.492188 -7.898438 5.140625 -7.734375 C 4.785156 -7.566406 4.460938 -7.3125 4.171875 -6.96875 C 3.890625 -6.625 3.675781 -6.195312 3.53125 -5.6875 C 3.976562 -5.65625 4.40625 -5.640625 4.8125 -5.640625 C 5.601562 -5.640625 6.234375 -5.738281 6.703125 -5.9375 C 7.179688 -6.132812 7.472656 -6.484375 7.578125 -6.984375 C 7.585938 -7.054688 7.59375 -7.113281 7.59375 -7.15625 C 7.59375 -7.40625 7.472656 -7.601562 7.234375 -7.75 C 7.003906 -7.90625 6.671875 -7.984375 6.234375 -7.984375 Z M 6.234375 -7.984375 "/></g></g><g transform="translate(234.179931, 241.675429)"><g><path d="M 3.984375 0.1875 C 3.367188 0.1875 2.816406 0.0546875 2.328125 -0.203125 C 1.835938 -0.460938 1.453125 -0.863281 1.171875 -1.40625 C 0.890625 -1.945312 0.75 -2.628906 0.75 -3.453125 C 0.75 -3.984375 0.816406 -4.582031 0.953125 -5.25 C 1.273438 -6.757812 1.859375 -7.90625 2.703125 -8.6875 C 3.554688 -9.476562 4.628906 -9.875 5.921875 -9.875 C 6.515625 -9.875 7.015625 -9.753906 7.421875 -9.515625 C 7.835938 -9.285156 8.160156 -8.957031 8.390625 -8.53125 L 8.578125 -8.5625 L 9.65625 -13.59375 L 12.078125 -13.59375 L 9.1875 0 L 6.765625 0 L 7.015625 -1.171875 L 6.84375 -1.203125 C 6.488281 -0.742188 6.09375 -0.394531 5.65625 -0.15625 C 5.226562 0.0703125 4.671875 0.1875 3.984375 0.1875 Z M 4.96875 -1.875 C 5.65625 -1.875 6.242188 -2.101562 6.734375 -2.5625 C 7.222656 -3.019531 7.566406 -3.722656 7.765625 -4.671875 C 7.859375 -5.085938 7.90625 -5.457031 7.90625 -5.78125 C 7.90625 -6.457031 7.742188 -6.960938 7.421875 -7.296875 C 7.097656 -7.640625 6.679688 -7.8125 6.171875 -7.8125 C 5.484375 -7.8125 4.898438 -7.570312 4.421875 -7.09375 C 3.941406 -6.625 3.601562 -5.929688 3.40625 -5.015625 C 3.3125 -4.585938 3.265625 -4.191406 3.265625 -3.828125 C 3.265625 -3.160156 3.414062 -2.664062 3.71875 -2.34375 C 4.03125 -2.03125 4.445312 -1.875 4.96875 -1.875 Z M 4.96875 -1.875 "/></g></g><g transform="translate(245.79907, 241.675429)"><g/></g><g transform="translate(250.044187, 241.675429)"><g><path d="M 4.75 0.1875 C 3.976562 0.1875 3.289062 0.046875 2.6875 -0.234375 C 2.082031 -0.523438 1.609375 -0.957031 1.265625 -1.53125 C 0.929688 -2.113281 0.765625 -2.828125 0.765625 -3.671875 C 0.765625 -4.117188 0.820312 -4.625 0.9375 -5.1875 C 1.144531 -6.164062 1.5 -7.003906 2 -7.703125 C 2.507812 -8.410156 3.148438 -8.945312 3.921875 -9.3125 C 4.703125 -9.6875 5.59375 -9.875 6.59375 -9.875 C 7.601562 -9.875 8.390625 -9.679688 8.953125 -9.296875 C 9.515625 -8.921875 9.910156 -8.375 10.140625 -7.65625 L 8.3125 -6.515625 L 8.125 -6.515625 C 7.96875 -6.960938 7.742188 -7.289062 7.453125 -7.5 C 7.160156 -7.707031 6.753906 -7.8125 6.234375 -7.8125 C 5.546875 -7.8125 4.945312 -7.5625 4.4375 -7.0625 C 3.9375 -6.5625 3.570312 -5.785156 3.34375 -4.734375 C 3.28125 -4.410156 3.25 -4.109375 3.25 -3.828125 C 3.25 -3.222656 3.398438 -2.742188 3.703125 -2.390625 C 4.015625 -2.046875 4.453125 -1.875 5.015625 -1.875 C 5.972656 -1.875 6.75 -2.4375 7.34375 -3.5625 L 7.546875 -3.59375 L 9.21875 -2.609375 C 8.8125 -1.742188 8.238281 -1.0625 7.5 -0.5625 C 6.769531 -0.0625 5.851562 0.1875 4.75 0.1875 Z M 4.75 0.1875 "/></g></g><g transform="translate(260.037351, 241.675429)"><g><path d="M 4.1875 -10.859375 C 3.75 -10.859375 3.390625 -10.988281 3.109375 -11.25 C 2.835938 -11.519531 2.703125 -11.863281 2.703125 -12.28125 C 2.703125 -12.695312 2.835938 -13.039062 3.109375 -13.3125 C 3.390625 -13.582031 3.75 -13.71875 4.1875 -13.71875 C 4.476562 -13.71875 4.738281 -13.65625 4.96875 -13.53125 C 5.195312 -13.40625 5.375 -13.234375 5.5 -13.015625 C 5.632812 -12.804688 5.703125 -12.5625 5.703125 -12.28125 C 5.703125 -12.007812 5.632812 -11.765625 5.5 -11.546875 C 5.375 -11.328125 5.195312 -11.15625 4.96875 -11.03125 C 4.738281 -10.914062 4.476562 -10.859375 4.1875 -10.859375 Z M 0.375 0 L 2.4375 -9.6875 L 4.875 -9.6875 L 2.796875 0 Z M 0.375 0 "/></g></g><g transform="translate(265.258053, 241.675429)"><g><path d="M 4.828125 -7.765625 L 3.890625 -3.34375 C 3.847656 -3.175781 3.828125 -3.023438 3.828125 -2.890625 C 3.828125 -2.585938 3.90625 -2.351562 4.0625 -2.1875 C 4.226562 -2.03125 4.460938 -1.953125 4.765625 -1.953125 C 4.972656 -1.953125 5.164062 -1.984375 5.34375 -2.046875 C 5.53125 -2.109375 5.71875 -2.195312 5.90625 -2.3125 L 6.09375 -2.3125 L 6.421875 -0.515625 C 6.117188 -0.285156 5.789062 -0.113281 5.4375 0 C 5.082031 0.125 4.617188 0.1875 4.046875 0.1875 C 3.515625 0.1875 3.046875 0.09375 2.640625 -0.09375 C 2.242188 -0.289062 1.929688 -0.582031 1.703125 -0.96875 C 1.472656 -1.351562 1.359375 -1.828125 1.359375 -2.390625 C 1.359375 -2.722656 1.394531 -3.066406 1.46875 -3.421875 L 2.390625 -7.765625 L 0.921875 -7.765625 L 1.328125 -9.703125 L 2.796875 -9.703125 L 3.203125 -11.59375 L 5.71875 -11.984375 L 5.234375 -9.703125 L 7.984375 -9.703125 L 7.578125 -7.765625 Z M 4.828125 -7.765625 "/></g></g><g transform="translate(272.790279, 241.675429)"><g><path d="M 4.1875 -10.859375 C 3.75 -10.859375 3.390625 -10.988281 3.109375 -11.25 C 2.835938 -11.519531 2.703125 -11.863281 2.703125 -12.28125 C 2.703125 -12.695312 2.835938 -13.039062 3.109375 -13.3125 C 3.390625 -13.582031 3.75 -13.71875 4.1875 -13.71875 C 4.476562 -13.71875 4.738281 -13.65625 4.96875 -13.53125 C 5.195312 -13.40625 5.375 -13.234375 5.5 -13.015625 C 5.632812 -12.804688 5.703125 -12.5625 5.703125 -12.28125 C 5.703125 -12.007812 5.632812 -11.765625 5.5 -11.546875 C 5.375 -11.328125 5.195312 -11.15625 4.96875 -11.03125 C 4.738281 -10.914062 4.476562 -10.859375 4.1875 -10.859375 Z M 0.375 0 L 2.4375 -9.6875 L 4.875 -9.6875 L 2.796875 0 Z M 0.375 0 "/></g></g><g transform="translate(278.010982, 241.675429)"><g><path d="M 7.109375 0 L -0.515625 0 L -0.09375 -2.015625 L 5.53125 -7.578125 L 5.53125 -7.765625 L 1.359375 -7.765625 L 1.765625 -9.703125 L 9.09375 -9.703125 L 8.671875 -7.6875 L 3.046875 -2.125 L 3.0625 -1.9375 L 7.515625 -1.9375 Z M 7.109375 0 "/></g></g><g transform="translate(286.659419, 241.675429)"><g><path d="M 9.859375 -6.765625 C 9.640625 -5.691406 9.054688 -4.921875 8.109375 -4.453125 C 7.160156 -3.984375 6 -3.75 4.625 -3.75 C 4.132812 -3.75 3.679688 -3.769531 3.265625 -3.8125 C 3.296875 -3.164062 3.46875 -2.679688 3.78125 -2.359375 C 4.09375 -2.035156 4.535156 -1.875 5.109375 -1.875 C 5.648438 -1.875 6.09375 -1.976562 6.4375 -2.1875 C 6.789062 -2.40625 7.113281 -2.734375 7.40625 -3.171875 L 7.59375 -3.171875 L 9.15625 -2.09375 C 8.851562 -1.613281 8.519531 -1.207031 8.15625 -0.875 C 7.789062 -0.550781 7.320312 -0.289062 6.75 -0.09375 C 6.1875 0.09375 5.492188 0.1875 4.671875 0.1875 C 3.929688 0.1875 3.269531 0.0234375 2.6875 -0.296875 C 2.101562 -0.617188 1.644531 -1.082031 1.3125 -1.6875 C 0.976562 -2.289062 0.8125 -3.015625 0.8125 -3.859375 C 0.8125 -4.335938 0.867188 -4.84375 0.984375 -5.375 C 1.179688 -6.3125 1.546875 -7.117188 2.078125 -7.796875 C 2.617188 -8.472656 3.269531 -8.988281 4.03125 -9.34375 C 4.789062 -9.695312 5.601562 -9.875 6.46875 -9.875 C 7.207031 -9.875 7.832031 -9.757812 8.34375 -9.53125 C 8.863281 -9.3125 9.253906 -9.003906 9.515625 -8.609375 C 9.785156 -8.222656 9.921875 -7.796875 9.921875 -7.328125 C 9.921875 -7.117188 9.898438 -6.929688 9.859375 -6.765625 Z M 6.234375 -7.984375 C 5.859375 -7.984375 5.492188 -7.898438 5.140625 -7.734375 C 4.785156 -7.566406 4.460938 -7.3125 4.171875 -6.96875 C 3.890625 -6.625 3.675781 -6.195312 3.53125 -5.6875 C 3.976562 -5.65625 4.40625 -5.640625 4.8125 -5.640625 C 5.601562 -5.640625 6.234375 -5.738281 6.703125 -5.9375 C 7.179688 -6.132812 7.472656 -6.484375 7.578125 -6.984375 C 7.585938 -7.054688 7.59375 -7.113281 7.59375 -7.15625 C 7.59375 -7.40625 7.472656 -7.601562 7.234375 -7.75 C 7.003906 -7.90625 6.671875 -7.984375 6.234375 -7.984375 Z M 6.234375 -7.984375 "/></g></g><g transform="translate(297.197504, 241.675429)"><g><path d="M 0.375 0 L 2.421875 -9.6875 L 4.765625 -9.6875 L 4.46875 -8.265625 L 4.625 -8.234375 C 4.988281 -8.773438 5.421875 -9.179688 5.921875 -9.453125 C 6.429688 -9.734375 7.039062 -9.875 7.75 -9.875 C 8.632812 -9.875 9.3125 -9.628906 9.78125 -9.140625 C 10.25 -8.660156 10.484375 -7.992188 10.484375 -7.140625 C 10.484375 -6.773438 10.4375 -6.378906 10.34375 -5.953125 L 9.078125 0 L 6.640625 0 L 7.921875 -6 C 7.960938 -6.1875 7.984375 -6.375 7.984375 -6.5625 C 7.984375 -6.957031 7.863281 -7.265625 7.625 -7.484375 C 7.394531 -7.710938 7.050781 -7.828125 6.59375 -7.828125 C 5.914062 -7.828125 5.34375 -7.597656 4.875 -7.140625 C 4.40625 -6.691406 4.070312 -5.984375 3.875 -5.015625 L 2.796875 0 Z M 0.375 0 "/></g></g><g transform="translate(308.552972, 241.675429)"><g><path d="M 3.53125 0.1875 C 2.945312 0.1875 2.398438 0.101562 1.890625 -0.0625 C 1.390625 -0.226562 0.960938 -0.453125 0.609375 -0.734375 C 0.253906 -1.015625 -0.0078125 -1.332031 -0.1875 -1.6875 L 1.421875 -3.078125 L 1.59375 -3.078125 C 1.832031 -2.648438 2.144531 -2.328125 2.53125 -2.109375 C 2.925781 -1.890625 3.382812 -1.78125 3.90625 -1.78125 C 4.445312 -1.78125 4.859375 -1.882812 5.140625 -2.09375 C 5.429688 -2.3125 5.578125 -2.617188 5.578125 -3.015625 C 5.578125 -3.234375 5.492188 -3.421875 5.328125 -3.578125 C 5.171875 -3.742188 4.90625 -3.878906 4.53125 -3.984375 L 3.3125 -4.328125 C 2.707031 -4.503906 2.21875 -4.785156 1.84375 -5.171875 C 1.476562 -5.554688 1.296875 -6.0625 1.296875 -6.6875 C 1.296875 -6.90625 1.320312 -7.144531 1.375 -7.40625 C 1.539062 -8.1875 1.972656 -8.789062 2.671875 -9.21875 C 3.367188 -9.65625 4.296875 -9.875 5.453125 -9.875 C 6.253906 -9.875 6.9375 -9.738281 7.5 -9.46875 C 8.0625 -9.207031 8.484375 -8.859375 8.765625 -8.421875 L 7.25 -7.078125 L 7.0625 -7.078125 C 6.863281 -7.390625 6.609375 -7.613281 6.296875 -7.75 C 5.992188 -7.894531 5.632812 -7.96875 5.21875 -7.96875 C 4.71875 -7.96875 4.332031 -7.894531 4.0625 -7.75 C 3.800781 -7.613281 3.644531 -7.40625 3.59375 -7.125 C 3.570312 -7.050781 3.5625 -7 3.5625 -6.96875 C 3.5625 -6.757812 3.648438 -6.578125 3.828125 -6.421875 C 4.015625 -6.273438 4.273438 -6.15625 4.609375 -6.0625 L 5.71875 -5.78125 C 7.21875 -5.382812 7.96875 -4.59375 7.96875 -3.40625 C 7.96875 -3.15625 7.941406 -2.898438 7.890625 -2.640625 C 7.671875 -1.691406 7.21875 -0.984375 6.53125 -0.515625 C 5.84375 -0.046875 4.84375 0.1875 3.53125 0.1875 Z M 3.53125 0.1875 "/></g></g></g></svg>